#!OML:ASF H:\BabyWalks\Project 1\Capture day 1\Session 1\baby.ASF
:FULLY-SPECIFIED
:DEGREES
455
root 3.83396 17.4083 -1.28383 -67.3996 79.9484 -54.8326
lowerback 7.32113 1.08184 -4.36857
upperback 4.31094 1.30368 -1.14239
thorax 0.289195 0.64584 1.18217
lowerneck 1.78136 1.70254 7.27468
upperneck 10.9787 2.13411 4.27524
head 3.2668 1.62023 0.201245
rclavicle 1.73688e-014 -2.38542e-014
rhumerus -46.4484 6.40125 -80.5366
rradius 50.7714
rwrist 1.05008
rhand -8.18207 -16.3835
rfingers 7.12502
rthumb 17.7336 -45.5949
lclavicle 1.73688e-014 -2.38542e-014
lhumerus -54.6344 -1.50331 68.4745
lradius 60.7505
lwrist 1.82006
lhand -8.05939 5.43079
lfingers 7.12502
lthumb 17.8517 34.6314
rfemur 9.49414 6.93223 29.5636
rtibia 20.5071
rfoot -15.9289 15.8484
rtoes 5.01059
lfemur 12.2469 -7.65347 -8.62106
ltibia 27.6822
lfoot -30.5871 -7.67299
ltoes -3.03662
456
root 3.83497 17.3983 -1.28448 -66.1611 79.6313 -53.4083
lowerback 7.23435 1.05881 -4.56561
upperback 4.26245 1.26179 -1.15374
thorax 0.286369 0.621089 1.28467
lowerneck 1.77937 1.82642 7.26712
upperneck 11.1195 2.27694 4.56754
head 3.31501 1.71021 0.304044
rclavicle 9.64106e-015 -4.13472e-014
rhumerus -46.4913 5.85508 -80.2535
rradius 50.3972
rwrist 0.9864
rhand -8.45725 -16.4681
rfingers 7.12502
rthumb 17.4688 -45.7032
lclavicle 9.64106e-015 -4.13472e-014
lhumerus -54.3312 -1.4722 68.27
lradius 60.9765
lwrist 1.83884
lhand -8.14992 5.39092
lfingers 7.12502
lthumb 17.7646 34.5995
rfemur 9.62548 7.12685 29.776
rtibia 20.6072
rfoot -16.0753 15.512
rtoes 4.10299
lfemur 12.5404 -7.62999 -8.55805
ltibia 27.7445
lfoot -30.6675 -7.39124
ltoes -3.01043
457
root 3.83416 17.3896 -1.28545 -65.1311 79.3077 -52.2271
lowerback 7.13664 1.03288 -4.73912
upperback 4.21661 1.21851 -1.1616
thorax 0.292966 0.595846 1.37787
lowerneck 1.77463 1.94198 7.25787
upperneck 11.2365 2.4089 4.85396
head 3.35508 1.79349 0.404969
rclavicle 2.73329e-015 -6.36111e-014
rhumerus -46.5274 5.32466 -79.9875
rradius 50.0108
rwrist 0.906683
rhand -8.68993 -16.5558
rfingers 7.12502
rthumb 17.2449 -45.8107
lclavicle 2.73329e-015 -6.36111e-014
lhumerus -54.0374 -1.43669 68.0817
lradius 61.2423
lwrist 1.90036
lhand -8.2473 5.36402
lfingers 7.12502
lthumb 17.6709 34.581
rfemur 9.71914 7.33786 30.0093
rtibia 20.696
rfoot -16.1982 15.1586
rtoes 3.20889
lfemur 12.7683 -7.60769 -8.47147
ltibia 27.8347
lfoot -30.7398 -7.10773
ltoes -2.99537
458
root 3.83176 17.3822 -1.28703 -64.2807 78.9892 -51.259
lowerback 7.02772 1.00616 -4.89139
upperback 4.1726 1.17656 -1.17204
thorax 0.308199 0.571527 1.45657
lowerneck 1.77366 2.04522 7.26088
upperneck 11.3256 2.52633 5.12479
head 3.38471 1.86816 0.498111
rclavicle -1.55052e-014 -2.54444e-014
rhumerus -46.5619 4.80607 -79.7411
rradius 49.6152
rwrist 0.832874
rhand -8.8647 -16.6465
rfingers 7.12502
rthumb 17.0767 -45.9159
lclavicle -1.55052e-014 -2.54444e-014
lhumerus -53.7501 -1.41009 67.9109
lradius 61.5414
lwrist 2.0055
lhand -8.34448 5.35249
lfingers 7.12502
lthumb 17.5774 34.5779
rfemur 9.77649 7.55108 30.2473
rtibia 20.7753
rfoot -16.2949 14.8059
rtoes 2.35737
lfemur 12.9375 -7.59266 -8.37512
ltibia 27.9433
lfoot -30.8023 -6.81885
ltoes -2.98919
459
root 3.8282 17.3761 -1.28956 -63.5542 78.6854 -50.4429
lowerback 6.91289 0.97734 -5.0295
upperback 4.1306 1.13354 -1.18719
thorax 0.329369 0.546898 1.52258
lowerneck 1.75934 2.13842 7.26432
upperneck 11.4015 2.62978 5.38233
head 3.41204 1.93487 0.586657
rclavicle -4.87022e-015 2.06736e-014
rhumerus -46.5969 4.31958 -79.521
rradius 49.2145
rwrist 0.758163
rhand -8.98861 -16.7388
rfingers 7.12502
rthumb 16.9574 -46.0185
lclavicle -4.87022e-015 2.06736e-014
lhumerus -53.4756 -1.3898 67.761
lradius 61.8723
lwrist 2.15405
lhand -8.43583 5.35706
lfingers 7.12502
lthumb 17.4894 34.5903
rfemur 9.80262 7.75302 30.4716
rtibia 20.846
rfoot -16.3684 14.4747
rtoes 1.54697
lfemur 13.0611 -7.58878 -8.286
ltibia 28.0619
lfoot -30.8561 -6.52062
ltoes -2.98866
460
root 3.82353 17.371 -1.29311 -62.9208 78.4166 -49.7431
lowerback 6.79786 0.946765 -5.17126
upperback 4.09171 1.08876 -1.21162
thorax 0.354354 0.521465 1.58107
lowerneck 1.72755 2.21937 7.27047
upperneck 11.4688 2.71581 5.62434
head 3.4396 1.99224 0.669543
rclavicle -2.29596e-014 2.70347e-014
rhumerus -46.633 3.86522 -79.3265
rradius 48.8138
rwrist 0.694621
rhand -9.04635 -16.8328
rfingers 7.12502
rthumb 16.9018 -46.1173
lclavicle -2.29596e-014 2.70347e-014
lhumerus -53.2107 -1.37934 67.6355
lradius 62.2258
lwrist 2.34002
lhand -8.51467 5.37039
lfingers 7.12502
lthumb 17.4136 34.6104
rfemur 9.80668 7.93251 30.6585
rtibia 20.9123
rfoot -16.4334 14.1655
rtoes 0.742369
lfemur 13.1482 -7.59913 -8.22487
ltibia 28.1784
lfoot -30.9009 -6.22075
ltoes -2.98995
461
root 3.81797 17.3668 -1.29772 -62.3685 78.1855 -49.1435
lowerback 6.68651 0.915449 -5.32005
upperback 4.05504 1.04311 -1.24421
thorax 0.379987 0.495675 1.63496
lowerneck 1.67719 2.28415 7.28518
upperneck 11.5324 2.7796 5.83959
head 3.46966 2.03792 0.742066
rclavicle 7.15625e-015 1.11319e-014
rhumerus -46.6754 3.44986 -79.1576
rradius 48.4169
rwrist 0.659074
rhand -9.02895 -16.9261
rfingers 7.12502
rthumb 16.9186 -46.2092
lclavicle 7.15625e-015 1.11319e-014
lhumerus -52.9598 -1.38351 67.5393
lradius 62.5955
lwrist 2.54979
lhand -8.577 5.39214
lfingers 7.12502
lthumb 17.3536 34.6374
rfemur 9.7909 8.08279 30.8041
rtibia 20.9772
rfoot -16.4922 13.8897
rtoes -0.0255893
lfemur 13.2086 -7.62369 -8.19264
ltibia 28.2827
lfoot -30.937 -5.92739
ltoes -2.99132
